<svg xmlns="http://www.w3.org/2000/svg" xmlns:xlink="http://www.w3.org/1999/xlink" version="1.1" x="0px" y="0px" viewBox="0 0 64 80" enable-background="new 0 0 64 64" xml:space="preserve"><path d="M32,4C16.5605469,4,4,16.5605469,4,32c0,4.4951172,1.0820313,8.9199219,3.140625,12.8779297L4.1025391,56.2241211  c-0.2714844,1.0117188,0.0048828,2.0913086,0.7285156,2.8486328C5.4033203,59.671875,6.1904297,60,7,60  c0.2138672,0,0.4306641-0.0229492,0.6445313-0.0698242l12.234375-2.6899414C23.6318359,59.0488281,27.7978516,60,32,60  c15.4394531,0,28-12.5605469,28-28S47.4394531,4,32,4z M32,54c-3.6005859,0-7.1640625-0.887207-10.3056641-2.565918  c-0.4384766-0.2338867-0.9238281-0.3540039-1.4140625-0.3540039c-0.2148438,0-0.4316406,0.0229492-0.6445313,0.0698242  l-8.4619141,1.8608398l2.0732422-7.7446289c0.2070313-0.7705078,0.0976563-1.5917969-0.3027344-2.2817383  C11.0185547,39.6650391,10,35.8666992,10,32c0-12.1308594,9.8691406-22,22-22s22,9.8691406,22,22S44.1308594,54,32,54z   M45.8300781,29.1699219C46.5693359,29.9199219,47,30.949707,47,32c0,1.0498047-0.4306641,2.0795898-1.1699219,2.8295898  C45.0898438,35.5698242,44.0498047,36,43,36c-1.0605469,0-2.0898438-0.4301758-2.8300781-1.1704102  C39.4296875,34.0795898,39,33.0498047,39,32c0-1.050293,0.4296875-2.0800781,1.1699219-2.8300781  C40.9199219,28.4296875,41.9501953,28,43,28S45.0800781,28.4296875,45.8300781,29.1699219z M34.8300781,29.1699219  C35.5693359,29.9199219,36,30.949707,36,32c0,1.0498047-0.4306641,2.0795898-1.1699219,2.8295898  C34.0898438,35.5698242,33.0498047,36,32,36s-2.0898438-0.4301758-2.8300781-1.1704102C28.4296875,34.0795898,28,33.0498047,28,32  c0-1.050293,0.4296875-2.0800781,1.1699219-2.8300781C29.9101563,28.4296875,30.9501953,28,32,28  S34.0898438,28.4296875,34.8300781,29.1699219z M23.8300781,29.1699219C24.5693359,29.9199219,25,30.949707,25,32  c0,1.0498047-0.4306641,2.0795898-1.1699219,2.8295898C23.0800781,35.5698242,22.0498047,36,21,36  s-2.0800781-0.4301758-2.8300781-1.1704102C17.4296875,34.0795898,17,33.0498047,17,32  c0-1.050293,0.4296875-2.0800781,1.1699219-2.8300781C18.9199219,28.4296875,19.9501953,28,21,28  S23.0800781,28.4296875,23.8300781,29.1699219z"/><text x="0" y="79" fill="#000000" font-size="5px" font-weight="bold" font-family="'Helvetica Neue', Helvetica, Arial-Unicode, Arial, Sans-serif">Created by shopping Icon</text><text x="0" y="84" fill="#000000" font-size="5px" font-weight="bold" font-family="'Helvetica Neue', Helvetica, Arial-Unicode, Arial, Sans-serif">from the Noun Project</text></svg>